<svg width="28" height="40" viewBox="0 0 28 40" fill="none" xmlns="http://www.w3.org/2000/svg">
<path d="M0.119019 11.1668C0.119019 8.37904 2.37891 6.11914 5.16664 6.11914H22.8333C25.621 6.11914 27.8809 8.37904 27.8809 11.1668V28.8334C27.8809 31.6212 25.621 33.881 22.8333 33.881H5.16664C2.37891 33.881 0.119019 31.6212 0.119019 28.8334V11.1668Z" fill="#CDDFCC"/>
<path d="M22.472 3.52941H6.00145C5.3517 3.52941 4.82497 3.00269 4.82497 2.35294V1.17647C4.82497 0.526724 5.3517 0 6.00145 0H22.472C23.1218 0 23.6485 0.526724 23.6485 1.17647V2.35294C23.6485 3.00269 23.1218 3.52941 22.472 3.52941Z" fill="#52A350"/>
<path d="M22.472 40H6.00145C5.3517 40 4.82497 39.4733 4.82497 38.8235V37.6471C4.82497 36.9973 5.3517 36.4706 6.00145 36.4706H22.472C23.1218 36.4706 23.6485 36.9973 23.6485 37.6471V38.8235C23.6485 39.4733 23.1218 40 22.472 40Z" fill="#52A350"/>
<path fill-rule="evenodd" clip-rule="evenodd" d="M22.8333 8.64286H5.16664C3.77278 8.64286 2.64283 9.77281 2.64283 11.1667V28.8333C2.64283 30.2272 3.77278 31.3571 5.16664 31.3571H22.8333C24.2272 31.3571 25.3571 30.2272 25.3571 28.8333V11.1667C25.3571 9.77281 24.2272 8.64286 22.8333 8.64286ZM5.16664 6.11905C2.37891 6.11905 0.119019 8.37895 0.119019 11.1667V28.8333C0.119019 31.6211 2.37891 33.881 5.16664 33.881H22.8333C25.621 33.881 27.8809 31.6211 27.8809 28.8333V11.1667C27.8809 8.37895 25.621 6.11905 22.8333 6.11905H5.16664Z" fill="#52A350"/>
<path fill-rule="evenodd" clip-rule="evenodd" d="M21.289 17.2421C21.6655 17.6125 21.6655 18.2129 21.289 18.5833L13.7176 26.0317C13.3411 26.4021 12.7307 26.4021 12.3542 26.0317L6.71093 20.4801C6.33441 20.1098 6.33441 19.5093 6.71093 19.1389L8.75602 17.127C9.13254 16.7566 9.74295 16.7566 10.1195 17.127L13.0359 19.9961L17.8805 15.2302C18.257 14.8598 18.8674 14.8598 19.2439 15.2302L21.289 17.2421Z" fill="#52A350"/>
<path fill-rule="evenodd" clip-rule="evenodd" d="M21.289 17.2421C21.6655 17.6125 21.6655 18.2129 21.289 18.5833L13.7176 26.0317C13.3411 26.4021 12.7307 26.4021 12.3542 26.0317L6.71093 20.4801C6.33441 20.1098 6.33441 19.5093 6.71093 19.1389L8.75602 17.127C9.13254 16.7566 9.74295 16.7566 10.1195 17.127L13.0359 19.9961L17.8805 15.2302C18.257 14.8598 18.8674 14.8598 19.2439 15.2302L21.289 17.2421Z" fill="#52A350"/>
</svg>
